<svg version="1.1" viewBox="0.0 0.0 960.0 720.0" fill="none" stroke="none" stroke-linecap="square" stroke-miterlimit="10" xmlns:xlink="http://www.w3.org/1999/xlink" xmlns="http://www.w3.org/2000/svg"><clipPath id="p.0"><path d="m0 0l960.0 0l0 720.0l-960.0 0l0 -720.0z" clip-rule="nonzero"/></clipPath><g clip-path="url(#p.0)"><path fill="#000000" fill-opacity="0.0" d="m0 0l960.0 0l0 720.0l-960.0 0z" fill-rule="evenodd"/><path fill="#5b88c6" d="m-34.472443 -10.031496l1028.9448 0l0 740.063l-1028.9448 0z" fill-rule="evenodd"/><path stroke="#000000" stroke-width="1.0" stroke-linejoin="round" stroke-linecap="butt" d="m-34.472443 -10.031496l1028.9448 0l0 740.063l-1028.9448 0z" fill-rule="evenodd"/><path fill="#fbfeff" d="m280.7399 200.40002c-20.996796 14.349304 -36.02318 46.668427 -45.501144 79.3609c-9.477966 32.692444 -20.844635 74.99371 -11.366669 116.793884c9.477966 41.80017 40.529648 102.06387 68.23448 134.0072c27.704834 31.943298 64.45706 45.300293 97.99448 57.65271c33.537445 12.352356 66.48642 19.831604 103.23007 16.46167c36.74359 -3.369995 85.44232 -18.090149 117.23169 -36.681396c31.789368 -18.591248 55.567566 -50.907898 73.50452 -74.866c17.93695 -23.9581 27.848328 -54.282776 34.11725 -68.8826c6.26886 -14.5998535 2.3306885 -10.483215 3.4960938 -18.716522c1.1653442 -8.233276 4.0787964 -23.32193 3.4960938 -30.683258c-0.58270264 -7.361328 0.15216064 2.8615112 -6.9921875 -13.484711c-7.144409 -16.346252 -6.7109375 -63.13257 -35.873962 -84.59268c-29.162964 -21.460114 -85.588745 -30.317291 -139.10394 -44.167984c-53.515198 -13.850708 -138.24283 -33.56935 -181.9873 -38.93622c-43.744446 -5.366867 -59.482697 -7.614319 -80.47946 6.7350006z" fill-rule="evenodd"/><path stroke="#000000" stroke-width="12.0" stroke-linejoin="round" stroke-linecap="butt" d="m280.7399 200.40002c-20.996796 14.349304 -36.02318 46.668427 -45.501144 79.3609c-9.477966 32.692444 -20.844635 74.99371 -11.366669 116.793884c9.477966 41.80017 40.529648 102.06387 68.23448 134.0072c27.704834 31.943298 64.45706 45.300293 97.99448 57.65271c33.537445 12.352356 66.48642 19.831604 103.23007 16.46167c36.74359 -3.369995 85.44232 -18.090149 117.23169 -36.681396c31.789368 -18.591248 55.567566 -50.907898 73.50452 -74.866c17.93695 -23.9581 27.848328 -54.282776 34.11725 -68.8826c6.26886 -14.5998535 2.3306885 -10.483215 3.4960938 -18.716522c1.1653442 -8.233276 4.0787964 -23.32193 3.4960938 -30.683258c-0.58270264 -7.361328 0.15216064 2.8615112 -6.9921875 -13.484711c-7.144409 -16.346252 -6.7109375 -63.13257 -35.873962 -84.59268c-29.162964 -21.460114 -85.588745 -30.317291 -139.10394 -44.167984c-53.515198 -13.850708 -138.24283 -33.56935 -181.9873 -38.93622c-43.744446 -5.366867 -59.482697 -7.614319 -80.47946 6.7350006z" fill-rule="evenodd"/><path fill="#52b2dc" d="m338.89587 202.3321c-20.772888 2.2474518 -24.352234 17.7733 -17.187805 40.454163c7.164459 22.680862 61.84503 64.9821 60.17447 95.631c-1.6705322 30.648865 -63.750946 61.292847 -70.197815 88.26227c-6.4468384 26.969452 14.087799 61.08899 31.516693 73.55438c17.428894 12.465363 50.8515 6.7546387 73.0567 1.2379456c22.2052 -5.5167236 34.384186 -34.74588 60.17447 -34.338165c25.790283 0.40774536 68.77701 31.47174 94.56729 36.784576c25.790283 5.312805 46.56604 3.6744995 60.17444 -4.9075623c13.608459 -8.582092 20.761414 -29.830963 21.476135 -46.58493c0.7147217 -16.753967 -10.740906 -40.861877 -17.187805 -53.938873c-6.4468384 -13.076996 -16.24054 -16.962738 -21.493347 -24.52304c-5.2527466 -7.560272 -10.979126 -10.623199 -10.023315 -20.838684c0.95581055 -10.215485 24.831604 -26.969452 15.758362 -40.454163c-9.073242 -13.484711 -41.304688 -26.559235 -70.197815 -40.454163c-28.893188 -13.894897 -68.05939 -31.267853 -103.16116 -42.9153c-35.101776 -11.647461 -86.676636 -29.216904 -107.44949 -26.969452z" fill-rule="evenodd"/><path stroke="#000000" stroke-width="12.0" stroke-linejoin="round" stroke-linecap="butt" d="m338.89587 202.3321c-20.772888 2.2474518 -24.352234 17.7733 -17.187805 40.454163c7.164459 22.680862 61.84503 64.9821 60.17447 95.631c-1.6705322 30.648865 -63.750946 61.292847 -70.197815 88.26227c-6.4468384 26.969452 14.087799 61.08899 31.516693 73.55438c17.428894 12.465363 50.8515 6.7546387 73.0567 1.2379456c22.2052 -5.5167236 34.384186 -34.74588 60.17447 -34.338165c25.790283 0.40774536 68.77701 31.47174 94.56729 36.784576c25.790283 5.312805 46.56604 3.6744995 60.17444 -4.9075623c13.608459 -8.582092 20.761414 -29.830963 21.476135 -46.58493c0.7147217 -16.753967 -10.740906 -40.861877 -17.187805 -53.938873c-6.4468384 -13.076996 -16.24054 -16.962738 -21.493347 -24.52304c-5.2527466 -7.560272 -10.979126 -10.623199 -10.023315 -20.838684c0.95581055 -10.215485 24.831604 -26.969452 15.758362 -40.454163c-9.073242 -13.484711 -41.304688 -26.559235 -70.197815 -40.454163c-28.893188 -13.894897 -68.05939 -31.267853 -103.16116 -42.9153c-35.101776 -11.647461 -86.676636 -29.216904 -107.44949 -26.969452z" fill-rule="evenodd"/><path fill="#fbfeff" d="m351.78265 279.57504c16.237701 6.5384827 52.777527 -3.8808594 65.909485 -13.484741c13.131958 -9.603851 24.343628 -31.876984 12.882233 -44.138504c-11.461395 -12.26152 -64.69818 -26.161346 -81.650604 -29.430588c-16.952423 -3.2692413 -15.287598 4.092087 -20.063904 9.815109c-4.7762756 5.7230225 -12.414337 11.649918 -8.593872 24.523026c3.820465 12.873123 15.278992 46.177185 31.516663 52.7157z" fill-rule="evenodd"/><path stroke="#000000" stroke-width="12.0" stroke-linejoin="round" stroke-linecap="butt" d="m351.78265 279.57504c16.237701 6.5384827 52.777527 -3.8808594 65.909485 -13.484741c13.131958 -9.603851 24.343628 -31.876984 12.882233 -44.138504c-11.461395 -12.26152 -64.69818 -26.161346 -81.650604 -29.430588c-16.952423 -3.2692413 -15.287598 4.092087 -20.063904 9.815109c-4.7762756 5.7230225 -12.414337 11.649918 -8.593872 24.523026c3.820465 12.873123 15.278992 46.177185 31.516663 52.7157z" fill-rule="evenodd"/><path fill="#3e70bb" d="m280.16937 199.87209c17.431763 22.680862 164.99182 22.275589 239.25122 56.40004c74.2594 34.12445 175.50311 148.7544 206.30511 148.34665c30.80194 -0.40771484 4.5322876 -106.04541 -21.493347 -150.79306c-26.025696 -44.747665 -86.42688 -95.419754 -134.66064 -117.69287c-48.233704 -22.273132 -106.507996 -26.569084 -154.74173 -15.945869c-48.233734 10.623207 -152.09238 57.004265 -134.66061 79.68511z" fill-rule="evenodd"/><path stroke="#000000" stroke-width="12.0" stroke-linejoin="round" stroke-linecap="butt" d="m280.16937 199.87209c17.431763 22.680862 164.99182 22.275589 239.25122 56.40004c74.2594 34.12445 175.50311 148.7544 206.30511 148.34665c30.80194 -0.40771484 4.5322876 -106.04541 -21.493347 -150.79306c-26.025696 -44.747665 -86.42688 -95.419754 -134.66064 -117.69287c-48.233704 -22.273132 -106.507996 -26.569084 -154.74173 -15.945869c-48.233734 10.623207 -152.09238 57.004265 -134.66061 79.68511z" fill-rule="evenodd"/></g></svg>